<?xml version="1.0" standalone="no"?>
<!DOCTYPE svg PUBLIC "-//W3C//DTD SVG 20010904//EN"
 "http://www.w3.org/TR/2001/REC-SVG-20010904/DTD/svg10.dtd">
<svg version="1.0" xmlns="http://www.w3.org/2000/svg"
 width="928.000000pt" height="269.000000pt" viewBox="0 0 928.000000 269.000000"
 preserveAspectRatio="xMidYMid meet">

<g transform="translate(0.000000,269.000000) scale(0.100000,-0.100000)"
fill="#000000" stroke="none">
<path d="M230 2684 c0 -4 94 -104 210 -224 116 -120 210 -224 210 -230 0 -6
-3 -10 -7 -8 -104 52 -205 73 -282 58 -184 -35 -307 -155 -342 -333 -24 -117
20 -251 112 -345 126 -129 307 -158 471 -74 43 22 78 37 78 33 0 -3 -101 -107
-224 -230 -124 -124 -223 -228 -220 -233 7 -11 222 -10 262 1 44 13 56 24 362
320 280 272 354 341 363 341 3 0 15 -33 27 -72 48 -159 133 -302 238 -400 61
-57 85 -65 115 -41 43 36 241 243 231 243 -5 0 -31 -7 -58 -15 -139 -42 -331
18 -426 133 -38 46 -90 148 -90 177 0 12 14 34 30 50 17 16 30 32 30 37 0 4
-16 25 -35 47 l-35 38 19 55 c27 79 44 108 95 164 127 142 364 174 521 71 17
-11 -22 34 -86 99 -64 65 -131 136 -149 156 -18 21 -41 40 -51 43 -41 13 -172
-110 -251 -235 -39 -61 -102 -214 -112 -272 -4 -21 -10 -39 -14 -42 -4 -3
-167 153 -362 345 l-355 349 -137 0 c-76 0 -138 -3 -138 -6z m732 -767 l41
-48 -39 -40 c-21 -23 -83 -81 -137 -131 l-98 -91 41 79 c66 127 72 243 19 363
-10 24 -19 48 -19 55 0 12 132 -116 192 -187z"/>
<path d="M1925 2679 c-85 -14 -96 -18 -88 -33 4 -8 168 -177 363 -376 195
-199 355 -368 355 -375 0 -14 -97 -116 -519 -544 -259 -263 -257 -245 -26
-245 174 -1 231 12 376 84 330 162 504 532 418 890 -9 36 -40 115 -69 175
-113 235 -302 371 -584 419 -102 17 -148 18 -226 5z"/>
<path d="M4320 2565 c-24 -24 -42 -46 -39 -49 2 -2 29 8 59 23 39 19 55 32 55
46 0 35 -29 27 -75 -20z"/>
<path d="M4655 2469 c-17 -4 -44 -23 -61 -41 -58 -61 -69 -143 -31 -218 38
-77 122 -107 219 -78 26 8 42 8 49 1 5 -5 21 -8 35 -5 22 4 24 8 24 67 0 55 3
64 21 70 12 4 19 14 17 23 -5 25 -181 25 -186 1 -2 -10 5 -19 18 -22 16 -4 20
-13 20 -50 0 -37 -4 -47 -20 -52 -57 -18 -90 34 -90 140 0 71 18 120 47 127
39 10 68 -7 88 -50 14 -31 25 -42 42 -42 22 0 23 4 23 64 0 50 -4 65 -16 70
-9 4 -22 2 -29 -4 -7 -6 -23 -6 -46 0 -40 12 -83 12 -124 -1z"/>
<path d="M5319 2471 c-119 -39 -160 -202 -73 -292 59 -62 193 -75 266 -26 56
38 78 81 78 152 0 72 -24 116 -78 148 -37 22 -149 32 -193 18z m120 -50 c37
-37 40 -193 5 -232 -20 -23 -63 -25 -90 -5 -16 12 -20 29 -22 108 -3 83 -1 96
18 121 25 32 62 35 89 8z"/>
<path d="M3066 2460 c-113 -34 -151 -215 -62 -297 62 -57 161 -67 231 -23 51
32 76 110 35 110 -11 0 -20 -7 -20 -15 0 -8 -13 -29 -28 -47 -35 -38 -82 -43
-114 -11 -27 27 -36 139 -16 198 24 72 103 72 133 1 17 -40 27 -48 49 -40 22
9 23 122 1 130 -8 4 -22 1 -30 -6 -12 -10 -21 -10 -41 -1 -29 13 -96 13 -138
1z"/>
<path d="M3430 2448 c-109 -55 -122 -220 -24 -294 35 -27 43 -29 130 -29 103
0 128 11 172 76 20 29 23 44 20 101 -4 78 -23 111 -84 145 -55 32 -153 32
-214 1z m149 -37 c37 -37 40 -193 5 -232 -25 -27 -80 -25 -98 4 -35 54 -27
204 12 235 23 18 59 15 81 -7z"/>
<path d="M3793 2463 c-28 -5 -30 -29 -4 -38 18 -5 20 -17 23 -118 3 -116 -2
-147 -27 -147 -8 0 -15 -7 -15 -15 0 -13 24 -15 160 -15 l160 0 0 65 c0 63 -1
65 -25 65 -19 0 -25 -5 -25 -23 0 -43 -27 -67 -76 -67 l-45 0 3 123 c3 116 4
123 26 132 23 10 28 20 14 29 -11 7 -142 13 -169 9z"/>
<path d="M4130 2451 c0 -10 9 -21 20 -24 19 -5 20 -14 20 -131 0 -119 -1 -126
-20 -126 -13 0 -20 -7 -20 -20 0 -19 7 -20 180 -20 l180 0 0 65 c0 62 -1 65
-24 65 -19 0 -26 -7 -31 -30 -11 -48 -30 -60 -96 -60 l-59 0 0 54 c0 30 4 58
10 61 16 10 50 -14 50 -35 0 -13 7 -20 20 -20 19 0 21 5 18 72 -2 60 -6 73
-20 76 -13 2 -18 -3 -18 -17 0 -22 -34 -46 -50 -36 -6 3 -10 28 -10 56 l0 49
46 0 c56 0 79 -12 99 -50 15 -30 48 -40 60 -20 4 6 4 33 0 60 l-7 50 -174 0
c-164 0 -174 -1 -174 -19z"/>
<path d="M4960 2455 c0 -9 11 -20 25 -25 l26 -10 -3 -122 c-3 -120 -4 -123
-26 -126 -15 -2 -22 -9 -20 -20 3 -14 19 -17 101 -20 90 -3 97 -1 97 16 0 11
-9 22 -20 25 -19 5 -20 14 -20 131 0 119 1 126 20 126 13 0 20 7 20 20 0 19
-7 20 -100 20 -83 0 -100 -3 -100 -15z"/>
<path d="M2022 2115 c2 -5 14 -32 27 -60 46 -101 50 -229 10 -323 -17 -40 -18
-43 -2 -31 46 38 184 181 181 188 -2 4 -52 59 -112 122 -60 63 -107 110 -104
104z"/>
<path d="M6980 1984 c-112 -30 -198 -105 -253 -222 -29 -60 -32 -76 -31 -157
0 -68 6 -104 22 -145 83 -210 305 -309 515 -230 80 30 167 112 209 198 31 62
33 73 33 172 0 97 -2 110 -31 171 -85 179 -272 265 -464 213z m241 -199 c23
-17 53 -50 66 -75 21 -38 24 -56 21 -121 -3 -64 -7 -82 -32 -117 -64 -92 -211
-121 -305 -59 -143 95 -130 309 24 392 22 12 51 15 107 13 66 -3 82 -7 119
-33z"/>
<path d="M3113 1971 c-268 -99 -354 -431 -169 -648 109 -126 304 -166 460 -92
70 32 160 120 191 184 53 113 49 269 -9 369 -38 65 -115 136 -186 169 -84 40
-205 48 -287 18z m259 -198 c123 -88 123 -277 0 -366 -57 -42 -159 -50 -226
-18 -107 52 -151 164 -111 282 33 95 108 141 222 137 62 -3 77 -8 115 -35z"/>
<path d="M4430 1711 l0 -269 -30 -25 c-16 -14 -40 -29 -52 -33 -33 -10 -38
-22 -38 -90 0 -80 12 -92 81 -76 28 7 70 24 95 38 58 34 131 116 144 162 5 21
10 152 10 300 l0 262 -105 0 -105 0 0 -269z"/>
<path d="M4863 1973 l-163 -3 0 -363 c0 -199 4 -368 9 -376 7 -10 49 -14 194
-14 227 -2 229 -1 225 102 l-3 66 -107 3 -108 3 0 63 0 64 90 4 c105 4 110 7
110 85 0 75 -13 85 -113 82 -96 -2 -105 5 -91 71 l9 43 81 -2 c44 -1 93 1 107
4 26 7 27 9 27 86 0 69 -2 79 -17 79 -10 0 -34 2 -53 3 -19 2 -108 2 -197 0z"/>
<path d="M5187 1973 c-4 -3 -7 -44 -7 -90 l0 -83 80 0 80 0 0 -274 c0 -151 3
-281 6 -290 5 -13 23 -16 90 -16 46 0 85 1 86 3 1 1 5 133 8 292 l5 290 57 -3
c87 -6 98 4 98 92 l0 74 -31 6 c-42 8 -464 8 -472 -1z"/>
<path d="M5733 1964 c-3 -8 -4 -173 -1 -365 4 -295 7 -352 20 -365 21 -22 155
-25 168 -4 11 16 14 708 4 734 -9 23 -182 23 -191 0z"/>
<path d="M5995 1970 c-3 -6 27 -90 69 -188 41 -97 110 -262 153 -367 l78 -190
72 -3 c88 -4 78 -15 166 208 36 91 97 243 136 339 39 95 71 182 71 193 0 17
-7 19 -92 16 -108 -3 -84 25 -195 -231 -42 -97 -81 -176 -85 -175 -10 4 -78
150 -129 278 -47 120 -59 130 -158 130 -44 0 -83 -5 -86 -10z"/>
<path d="M3733 1963 c-20 -8 -18 -702 1 -729 13 -17 27 -19 178 -18 185 1 221
9 281 63 46 41 67 84 67 136 0 67 -34 117 -120 177 l-25 17 42 38 c66 59 81
129 44 201 -25 48 -55 76 -111 101 -39 18 -65 20 -195 20 -82 0 -156 -3 -162
-6z m280 -154 c29 -16 37 -28 37 -61 0 -44 -32 -68 -90 -68 l-50 0 0 70 0 70
41 0 c22 0 50 -5 62 -11z m54 -321 c29 -27 29 -50 0 -84 -21 -24 -31 -27 -88
-28 l-64 -1 -3 68 -3 67 67 0 c56 0 72 -4 91 -22z"/>
<path d="M8640 1023 c-13 -3 -47 -14 -75 -25 -121 -48 -191 -148 -189 -273 1
-82 24 -135 79 -183 52 -46 93 -64 264 -116 218 -66 251 -85 251 -143 0 -45
-14 -69 -50 -88 -35 -18 -146 -20 -202 -3 -56 16 -129 85 -167 157 l-32 61
-60 0 -59 0 0 -170 0 -170 25 -6 c38 -10 96 5 116 29 16 20 20 21 51 9 86 -35
174 -52 272 -52 151 1 232 25 315 97 56 48 83 103 89 184 13 183 -92 273 -403
344 -123 28 -161 42 -189 70 -18 19 -21 67 -5 97 16 30 86 58 148 58 111 0
176 -39 230 -139 l32 -61 70 0 70 0 -3 153 -3 152 -58 3 c-49 3 -61 0 -75 -18
l-17 -21 -55 20 c-95 35 -275 51 -370 34z"/>
<path d="M2685 986 c-68 -17 -104 -37 -158 -89 -63 -62 -80 -99 -85 -187 -3
-68 -1 -80 25 -130 51 -96 98 -120 447 -223 53 -15 114 -62 122 -92 19 -74
-62 -132 -169 -121 -112 11 -199 72 -251 175 -28 54 -58 69 -116 56 -38 -8
-43 -33 -38 -199 3 -141 6 -146 71 -146 27 0 45 7 63 25 31 31 31 31 114 1
207 -75 436 -42 553 78 90 92 97 259 14 353 -63 72 -148 111 -341 154 -134 30
-202 60 -212 91 -33 104 135 177 268 116 65 -30 97 -63 129 -129 l22 -49 68 0
c61 0 67 2 73 23 9 36 7 233 -4 261 -9 24 -15 26 -64 26 -44 0 -56 -4 -68 -22
l-15 -22 -59 22 c-113 41 -285 54 -389 28z"/>
<path d="M6347 993 l-258 -3 3 -58 3 -57 47 -5 c27 -3 52 -10 57 -15 6 -6 11
-145 13 -328 3 -361 7 -347 -79 -347 l-43 0 0 -60 0 -60 495 0 495 0 0 190 0
190 -69 0 c-77 0 -70 9 -87 -95 -8 -48 -35 -104 -62 -128 -25 -23 -117 -37
-243 -37 l-96 0 -7 146 c-3 80 -3 150 0 156 4 6 28 8 56 6 62 -6 87 -30 99
-94 11 -57 21 -65 74 -62 l40 3 3 175 c2 96 0 190 -3 208 -6 31 -7 32 -60 32
l-55 0 0 -43 c0 -23 -7 -52 -15 -63 -19 -28 -65 -46 -106 -42 l-34 3 -3 133
-3 132 128 0 c70 0 145 -5 165 -10 47 -14 92 -67 116 -140 l19 -55 65 -3 c61
-3 66 -1 72 20 9 37 -6 302 -18 310 -10 7 -92 7 -709 1z"/>
<path d="M7197 993 c-12 -11 -8 -88 5 -101 7 -7 26 -12 43 -12 17 0 40 -6 51
-14 18 -14 19 -29 19 -336 0 -358 4 -340 -72 -340 -49 0 -59 -17 -48 -86 l6
-44 168 0 c93 0 183 3 200 6 30 6 31 8 31 59 0 57 -7 65 -60 65 -56 0 -60 18
-60 292 0 137 4 248 9 248 5 0 26 -33 46 -72 21 -40 65 -117 97 -171 32 -55
58 -101 58 -104 0 -10 152 -278 167 -295 14 -16 36 -18 159 -18 133 0 144 1
154 20 7 13 8 133 4 379 -8 409 -9 403 66 416 l40 7 0 54 0 54 -197 -2 -198
-3 -3 -45 c-4 -52 13 -70 64 -70 63 0 64 -6 64 -266 0 -129 -2 -234 -5 -234
-8 0 -51 73 -186 316 -141 255 -158 285 -174 296 -13 10 -439 10 -448 1z"/>
<path d="M4413 983 c-19 -7 -16 -88 3 -107 9 -9 32 -16 54 -16 29 0 42 -5 50
-19 13 -25 13 -630 0 -651 -6 -11 -32 -16 -89 -18 -74 -4 -82 -2 -105 21 -14
14 -35 58 -49 103 -136 435 -210 651 -228 667 -18 14 -43 17 -169 17 l-147 0
-13 -27 c-7 -16 -56 -156 -110 -313 -138 -402 -146 -422 -175 -447 -14 -12
-41 -25 -60 -29 -35 -6 -35 -7 -35 -59 0 -42 4 -54 18 -57 9 -3 104 -3 210 0
l192 5 0 42 c0 66 -6 75 -55 75 -66 0 -73 16 -45 105 l24 75 132 0 132 0 22
-65 c12 -35 20 -75 18 -87 -3 -20 -9 -23 -60 -26 l-58 -3 0 -60 0 -59 548 2
547 3 3 37 c5 54 -10 74 -60 82 -67 11 -68 13 -68 161 l0 132 153 6 c228 8
329 43 379 132 19 33 23 55 23 125 0 76 -3 90 -29 133 -23 41 -39 54 -92 79
-38 18 -93 34 -136 39 -71 9 -701 10 -725 2z m588 -133 c19 -6 45 -20 57 -33
28 -29 38 -99 22 -155 -15 -58 -64 -81 -166 -82 l-71 0 -7 31 c-8 42 -8 234 1
242 10 11 123 8 164 -3z m-1141 -221 c23 -72 39 -136 37 -143 -4 -9 -28 -12
-82 -10 -42 2 -79 5 -82 7 -7 7 69 277 78 277 5 0 27 -59 49 -131z"/>
<path d="M5476 974 c-8 -20 -8 -68 0 -88 4 -11 19 -16 43 -16 20 0 47 -7 59
-16 22 -15 22 -16 22 -329 0 -355 2 -345 -76 -345 l-44 0 0 -67 0 -66 98 6
c53 4 177 7 275 7 l177 0 0 60 0 60 -43 0 c-85 0 -82 -13 -85 340 -4 356 -6
347 77 352 l46 3 0 55 0 55 -271 3 c-241 2 -272 1 -278 -14z"/>
</g>
</svg>
